# xmcd
#
# Track frame offsets:
#	150
#	5599
#	32307
#	51827
#	77751
#	97257
#	121509
#	143360
#	166050
#	184541
#	204556
#	224381
#
# Disc length: 3205 seconds
#
# Revision: 2
# Processed by: cddbd v1.5.2PL0 Copyright (c) Steve Scherf et al.
# Submitted via: EZCDAudioConverter 8.0.2.1
#
DISCID=910c830c
DTITLE=Mỹ Linh - st. Trịnh Công Sơn. Còn Mãi Tìm Nhau
DYEAR=1998
DGENRE=World Pop
TTITLE0=Lời bạt
TTITLE1=Xin trả nợ người
TTITLE2=Quỳnh Hương
TTITLE3=Hoa vàng mấy độ
TTITLE4=Cát bụi
TTITLE5=Có những con đường
TTITLE6=Còn Mãi Tìm Nhau
TTITLE7=Tôi ơi đùng tuyệt vọng
TTITLE8=Ở trọ
TTITLE9=Một cõi đi về
TTITLE10=Bên đời hiu quạnh
TTITLE11=Đường xa vạn dặm
EXTD=
EXTT0=
EXTT1=
EXTT2=
EXTT3=
EXTT4=
EXTT5=
EXTT6=
EXTT7=
EXTT8=
EXTT9=
EXTT10=
EXTT11=
PLAYORDER=
